<svg width="1024" height="1024" viewBox="0 0 1024 1024" fill="none" xmlns="http://www.w3.org/2000/svg">
<rect width="1024" height="1024" rx="120" fill="#0088FF"/>
<path d="M649.961 415C672.852 415 690.817 422.986 703.858 438.959C705.216 440.622 707.615 441.047 709.426 439.892C722.31 431.673 736.088 425.626 750.761 421.75C766.961 417.25 781.361 415 793.961 415H798.461C818.861 415 835.211 421.15 847.511 433.45C859.811 445.75 865.961 462.1 865.961 482.5V654C865.961 656.209 864.17 658 861.961 658H791.211C789.002 658 787.211 656.209 787.211 654V496C787.211 491.5 785.711 487.75 782.711 484.75C779.711 481.75 775.961 480.25 771.461 480.25H769.211C756.339 480.25 740.058 482.977 720.368 488.432C718.647 488.909 717.461 490.481 717.461 492.267V654C717.461 656.209 715.67 658 713.461 658H642.711C640.502 658 638.711 656.209 638.711 654V496C638.711 491.5 637.211 487.75 634.211 484.75C631.211 481.75 627.461 480.25 622.961 480.25H620.711C607.839 480.25 591.558 482.977 571.868 488.432C570.147 488.909 568.961 490.481 568.961 492.267V654C568.961 656.209 567.17 658 564.961 658H494.211C492.002 658 490.211 656.209 490.211 654V423.5C490.211 421.291 492.002 419.5 494.211 419.5H556.682C558.588 419.5 560.23 420.846 560.604 422.716L563.296 436.174C563.852 438.958 567.054 440.294 569.473 438.809C581.969 431.14 594.698 425.454 607.661 421.75C622.661 417.25 635.261 415 645.461 415H649.961Z" fill="white"/>
<path d="M368.5 428.5C368.5 410.5 359.5 475.5 341.5 475.5H265C247 475.5 238 410.5 238 428.5V572.5C238 588.11 244.769 596.951 258.306 599.024C262.714 599.699 267.19 600.033 271.523 601.087L289.184 605.383C297.613 607.433 306.402 607.497 314.86 605.57L335.358 600.899C339.44 599.969 343.636 599.672 347.781 599.085C361.594 597.129 368.5 588.268 368.5 572.5V428.5ZM449.5 572.5C449.5 604 442.3 626.95 427.9 641.35C413.8 655.45 391 662.5 359.5 662.5H247C215.5 662.5 192.55 655.45 178.15 641.35C164.05 626.95 157 604 157 572.5V428.5C157 397 164.05 374.2 178.15 360.1C192.55 345.7 215.5 338.5 247 338.5H359.5C391 338.5 413.8 345.7 427.9 360.1C442.3 374.2 449.5 397 449.5 428.5V572.5Z" fill="white"/>
</svg>
