<svg width="709" height="324" viewBox="0 0 709 324" fill="none" xmlns="http://www.w3.org/2000/svg">
<path d="M492.961 76.5C515.852 76.5 533.817 84.486 546.858 100.459C548.216 102.122 550.615 102.547 552.426 101.392C565.31 93.173 579.088 87.126 593.761 83.25C609.961 78.75 624.361 76.5 636.961 76.5H641.461C661.861 76.5 678.211 82.65 690.511 94.95C702.811 107.25 708.961 123.6 708.961 144V315.5C708.961 317.709 707.17 319.5 704.961 319.5H634.211C632.002 319.5 630.211 317.709 630.211 315.5V157.5C630.211 153 628.711 149.25 625.711 146.25C622.711 143.25 618.961 141.75 614.461 141.75H612.211C599.339 141.75 583.058 144.477 563.368 149.932C561.647 150.409 560.461 151.981 560.461 153.767V315.5C560.461 317.709 558.67 319.5 556.461 319.5H485.711C483.502 319.5 481.711 317.709 481.711 315.5V157.5C481.711 153 480.211 149.25 477.211 146.25C474.211 143.25 470.461 141.75 465.961 141.75H463.711C450.839 141.75 434.558 144.477 414.868 149.932C413.147 150.409 411.961 151.981 411.961 153.767V315.5C411.961 317.709 410.17 319.5 407.961 319.5H337.211C335.002 319.5 333.211 317.709 333.211 315.5V85C333.211 82.791 335.002 81 337.211 81H399.682C401.588 81 403.23 82.346 403.604 84.216L406.296 97.674C406.852 100.458 410.054 101.794 412.473 100.309C424.969 92.64 437.698 86.954 450.661 83.25C465.661 78.75 478.261 76.5 488.461 76.5H492.961Z" fill="white"/>
<path d="M211.5 90C211.5 72 202.5 137 184.5 137H108C90 137 81 72 81 90V234C81 249.61 87.769 258.451 101.306 260.524C105.714 261.199 110.19 261.533 114.523 262.587L132.184 266.883C140.613 268.933 149.402 268.997 157.86 267.07L178.358 262.399C182.44 261.469 186.636 261.172 190.781 260.585C204.594 258.629 211.5 249.768 211.5 234V90ZM292.5 234C292.5 265.5 285.3 288.45 270.9 302.85C256.8 316.95 234 324 202.5 324H90C58.5 324 35.55 316.95 21.15 302.85C7.04999 288.45 0 265.5 0 234V90C0 58.5 7.04999 35.7 21.15 21.6C35.55 7.20001 58.5 0 90 0H202.5C234 0 256.8 7.20001 270.9 21.6C285.3 35.7 292.5 58.5 292.5 90V234Z" fill="white"/>
</svg>
